<svg xmlns="http://www.w3.org/2000/svg" viewBox="0 0 320 200" role="img" aria-label="car placeholder blue">
<rect width="320" height="200" rx="24" fill="#eef5ff"/>
<rect x="26" y="24" width="268" height="152" rx="20" fill="#dbe9ff"/>
<path d="M82 122h156c10 0 18-8 18-18v-5c0-4-1-8-3-11l-13-25c-4-8-13-13-22-13h-74c-9 0-18 5-22 13L86 88c-2 3-3 7-3 11v5c0 10 8 18 18 18z" fill="#2f80ff"/>
<path d="M118 63h83c7 0 13 4 16 10l8 15H95l8-15c3-6 9-10 15-10z" fill="#94c0ff"/>
<circle cx="118" cy="126" r="20" fill="#1d3557"/>
<circle cx="118" cy="126" r="10" fill="#f7fbff"/>
<circle cx="220" cy="126" r="20" fill="#1d3557"/>
<circle cx="220" cy="126" r="10" fill="#f7fbff"/>
<rect x="108" y="93" width="46" height="17" rx="6" fill="#f7fbff"/>
<rect x="160" y="93" width="46" height="17" rx="6" fill="#f7fbff"/>
<rect x="84" y="112" width="20" height="8" rx="4" fill="#ffd166"/>
<rect x="216" y="112" width="20" height="8" rx="4" fill="#ffd166"/>
<text x="160" y="164" text-anchor="middle" font-size="18" font-family="Arial, sans-serif" fill="#56708f">Car Rental</text>
</svg>
